<?xml version="1.0" encoding="UTF-8"?>
<!DOCTYPE svg PUBLIC "-//W3C//DTD SVG 1.1//EN" "http://www.w3.org/Graphics/SVG/1.1/DTD/svg11.dtd">
<svg xmlns="http://www.w3.org/2000/svg" version="1.1" width="50px" height="50px" style="shape-rendering:geometricPrecision; text-rendering:geometricPrecision; image-rendering:optimizeQuality; fill-rule:evenodd; clip-rule:evenodd" xmlns:xlink="http://www.w3.org/1999/xlink">
<g><path style="opacity:1" fill="#90d1d8" d="M 31.5,1.5 C 29.4727,1.33788 27.4727,1.50454 25.5,2C 22.8407,4.25641 20.174,6.42308 17.5,8.5C 11.9074,9.59168 8.40741,12.925 7,18.5C 6.53566,17.9056 6.36899,17.2389 6.5,16.5C 6.5,15.1667 6.5,13.8333 6.5,12.5C 12.2691,2.80535 20.6024,-0.861314 31.5,1.5 Z"/></g>
<g><path style="opacity:0.541" fill="#1c4f60" d="M 42.5,7.5 C 43.9063,7.97306 44.573,8.97306 44.5,10.5C 44.1667,10.5 43.8333,10.5 43.5,10.5C 42.8902,9.60895 42.5569,8.60895 42.5,7.5 Z"/></g>
<g><path style="opacity:1" fill="#72ebfb" d="M 31.5,1.5 C 33.5529,1.40206 35.2196,2.06873 36.5,3.5C 32.8733,4.27957 29.54,5.77957 26.5,8C 24.461,10.3745 22.1277,12.3745 19.5,14C 20.4158,14.2784 21.0825,14.7784 21.5,15.5C 20.1667,15.5 18.8333,15.5 17.5,15.5C 17.5,18.1667 17.5,20.8333 17.5,23.5C 16.6862,21.369 16.1862,19.0356 16,16.5C 13.5641,20.45 10.0641,22.45 5.5,22.5C 5.20528,20.2646 5.53862,18.2646 6.5,16.5C 6.36899,17.2389 6.53566,17.9056 7,18.5C 8.40741,12.925 11.9074,9.59168 17.5,8.5C 20.174,6.42308 22.8407,4.25641 25.5,2C 27.4727,1.50454 29.4727,1.33788 31.5,1.5 Z"/></g>
<g><path style="opacity:1" fill="#3ce8fc" d="M 36.5,3.5 C 36.5,4.5 36.5,5.5 36.5,6.5C 37.8734,6.34332 39.2068,6.50999 40.5,7C 36.116,10.8565 31.116,13.6898 25.5,15.5C 24.7025,15.9569 24.3691,16.6236 24.5,17.5C 23.5,16.8333 22.5,16.1667 21.5,15.5C 21.0825,14.7784 20.4158,14.2784 19.5,14C 22.1277,12.3745 24.461,10.3745 26.5,8C 29.54,5.77957 32.8733,4.27957 36.5,3.5 Z"/></g>
<g><path style="opacity:1" fill="#41d4f1" d="M 36.5,3.5 C 39.1979,3.8449 41.1979,5.17823 42.5,7.5C 42.5569,8.60895 42.8902,9.60895 43.5,10.5C 41.7277,12.2959 39.7277,13.9625 37.5,15.5C 36.52,18.0865 36.1866,20.7531 36.5,23.5C 36.5,25.5 36.5,27.5 36.5,29.5C 36.6716,30.4916 36.3382,31.1583 35.5,31.5C 35.5,26.1667 35.5,20.8333 35.5,15.5C 34.1667,15.5 32.8333,15.5 31.5,15.5C 31.6646,18.5184 31.498,21.5184 31,24.5C 28.6278,22.2968 26.4611,19.9635 24.5,17.5C 24.3691,16.6236 24.7025,15.9569 25.5,15.5C 31.116,13.6898 36.116,10.8565 40.5,7C 39.2068,6.50999 37.8734,6.34332 36.5,6.5C 36.5,5.5 36.5,4.5 36.5,3.5 Z"/></g>
<g><path style="opacity:1" fill="#f5fbfc" d="M 21.5,15.5 C 22.5,16.1667 23.5,16.8333 24.5,17.5C 26.4611,19.9635 28.6278,22.2968 31,24.5C 31.498,21.5184 31.6646,18.5184 31.5,15.5C 32.8333,15.5 34.1667,15.5 35.5,15.5C 35.5,20.8333 35.5,26.1667 35.5,31.5C 35.5,32.1667 35.1667,32.5 34.5,32.5C 33.5,32.5 32.5,32.5 31.5,32.5C 30.1667,30.5 28.5,28.8333 26.5,27.5C 22.1884,21.3171 20.5217,22.6504 21.5,31.5C 20.791,32.404 19.791,32.7373 18.5,32.5C 18.1667,31.8333 17.8333,31.1667 17.5,30.5C 17.5,28.1667 17.5,25.8333 17.5,23.5C 17.5,20.8333 17.5,18.1667 17.5,15.5C 18.8333,15.5 20.1667,15.5 21.5,15.5 Z"/></g>
<g><path style="opacity:1" fill="#07afee" d="M 43.5,10.5 C 43.8333,10.5 44.1667,10.5 44.5,10.5C 46.4484,12.3204 47.4484,14.6538 47.5,17.5C 44.3178,19.5168 40.6511,21.5168 36.5,23.5C 36.1866,20.7531 36.52,18.0865 37.5,15.5C 39.7277,13.9625 41.7277,12.2959 43.5,10.5 Z"/></g>
<g><path style="opacity:0.784" fill="#3e96a5" d="M 6.5,12.5 C 6.5,13.8333 6.5,15.1667 6.5,16.5C 5.53862,18.2646 5.20528,20.2646 5.5,22.5C 5.08332,25.0792 5.74999,27.2458 7.5,29C 6.74756,29.6708 6.41423,30.5041 6.5,31.5C 5.77842,31.0825 5.27842,30.4158 5,29.5C 4.83333,27.1667 4.66667,24.8333 4.5,22.5C 4.31477,18.8589 4.98143,15.5256 6.5,12.5 Z"/></g>
<g><path style="opacity:1" fill="#0788dd" d="M 47.5,17.5 C 48.8333,20.8333 48.8333,24.1667 47.5,27.5C 47.6567,26.1266 47.49,24.7932 47,23.5C 44.8333,24.3333 43.3333,25.8333 42.5,28C 40.4961,29.5618 38.4961,30.0618 36.5,29.5C 36.5,27.5 36.5,25.5 36.5,23.5C 40.6511,21.5168 44.3178,19.5168 47.5,17.5 Z"/></g>
<g><path style="opacity:1" fill="#2fdaf5" d="M 17.5,23.5 C 17.5,25.8333 17.5,28.1667 17.5,30.5C 16.7784,30.0825 16.2784,29.4158 16,28.5C 15.5065,30.1341 15.3398,31.8008 15.5,33.5C 13.2845,34.044 11.2845,35.044 9.5,36.5C 9.16667,36.5 8.83333,36.5 8.5,36.5C 7.46253,35.0697 6.79586,33.403 6.5,31.5C 6.41423,30.5041 6.74756,29.6708 7.5,29C 5.74999,27.2458 5.08332,25.0792 5.5,22.5C 10.0641,22.45 13.5641,20.45 16,16.5C 16.1862,19.0356 16.6862,21.369 17.5,23.5 Z"/></g>
<g><path style="opacity:1" fill="#4fcaf2" d="M 26.5,27.5 C 25.2921,28.2341 23.9587,28.5674 22.5,28.5C 22.7373,29.791 22.404,30.791 21.5,31.5C 20.5217,22.6504 22.1884,21.3171 26.5,27.5 Z"/></g>
<g><path style="opacity:1" fill="#04aaf2" d="M 26.5,27.5 C 28.5,28.8333 30.1667,30.5 31.5,32.5C 30.448,32.3505 29.448,32.5172 28.5,33C 24.7757,35.52 21.1091,38.02 17.5,40.5C 16.0222,40.238 14.6888,40.5713 13.5,41.5C 12.8284,43.1595 11.8284,44.4928 10.5,45.5C 10.1667,45.5 9.83333,45.5 9.5,45.5C 7.82124,45.7148 6.82124,45.0481 6.5,43.5C 7.90632,43.0269 8.57298,42.0269 8.5,40.5C 8.5,39.1667 8.5,37.8333 8.5,36.5C 8.83333,36.5 9.16667,36.5 9.5,36.5C 9.21478,38.288 9.54811,39.9547 10.5,41.5C 13.5604,38.7775 16.227,35.7775 18.5,32.5C 19.791,32.7373 20.791,32.404 21.5,31.5C 22.404,30.791 22.7373,29.791 22.5,28.5C 23.9587,28.5674 25.2921,28.2341 26.5,27.5 Z"/></g>
<g><path style="opacity:1" fill="#0280ee" d="M 47.5,27.5 C 47.5674,28.9587 47.2341,30.2921 46.5,31.5C 45.2976,30.5946 43.9643,30.5946 42.5,31.5C 37.5282,34.6559 32.5282,37.8226 27.5,41C 26.7476,41.6708 26.4142,42.5041 26.5,43.5C 25.448,43.6495 24.448,43.4828 23.5,43C 24.7014,42.0975 25.5348,40.9308 26,39.5C 29.054,37.2647 31.8873,34.9314 34.5,32.5C 35.1667,32.5 35.5,32.1667 35.5,31.5C 36.3382,31.1583 36.6716,30.4916 36.5,29.5C 38.4961,30.0618 40.4961,29.5618 42.5,28C 43.3333,25.8333 44.8333,24.3333 47,23.5C 47.49,24.7932 47.6567,26.1266 47.5,27.5 Z"/></g>
<g><path style="opacity:1" fill="#09bef5" d="M 17.5,30.5 C 17.8333,31.1667 18.1667,31.8333 18.5,32.5C 16.227,35.7775 13.5604,38.7775 10.5,41.5C 9.54811,39.9547 9.21478,38.288 9.5,36.5C 11.2845,35.044 13.2845,34.044 15.5,33.5C 15.3398,31.8008 15.5065,30.1341 16,28.5C 16.2784,29.4158 16.7784,30.0825 17.5,30.5 Z"/></g>
<g><path style="opacity:0.996" fill="#1850a9" d="M 46.5,31.5 C 44.5,36.8333 40.8333,40.5 35.5,42.5C 36.2443,38.5868 38.5776,36.0868 42.5,35C 41.8288,34.0138 41.8288,32.8471 42.5,31.5C 43.9643,30.5946 45.2976,30.5946 46.5,31.5 Z"/></g>
<g><path style="opacity:1" fill="#0584df" d="M 31.5,32.5 C 32.5,32.5 33.5,32.5 34.5,32.5C 31.8873,34.9314 29.054,37.2647 26,39.5C 25.5348,40.9308 24.7014,42.0975 23.5,43C 24.448,43.4828 25.448,43.6495 26.5,43.5C 28.1667,43.5 29.8333,43.5 31.5,43.5C 27.9351,44.7866 24.2684,44.7866 20.5,43.5C 19.0998,42.8999 18.0998,41.8999 17.5,40.5C 21.1091,38.02 24.7757,35.52 28.5,33C 29.448,32.5172 30.448,32.3505 31.5,32.5 Z"/></g>
<g><path style="opacity:1" fill="#0172ed" d="M 42.5,31.5 C 41.8288,32.8471 41.8288,34.0138 42.5,35C 38.5776,36.0868 36.2443,38.5868 35.5,42.5C 34.2921,43.2341 32.9587,43.5674 31.5,43.5C 29.8333,43.5 28.1667,43.5 26.5,43.5C 26.4142,42.5041 26.7476,41.6708 27.5,41C 32.5282,37.8226 37.5282,34.6559 42.5,31.5 Z"/></g>
<g><path style="opacity:1" fill="#0d80c2" d="M 17.5,40.5 C 18.0998,41.8999 19.0998,42.8999 20.5,43.5C 17.1667,44.1667 13.8333,44.8333 10.5,45.5C 11.8284,44.4928 12.8284,43.1595 13.5,41.5C 14.6888,40.5713 16.0222,40.238 17.5,40.5 Z"/></g>
<g><path style="opacity:0.29" fill="#14445a" d="M 8.5,40.5 C 8.57298,42.0269 7.90632,43.0269 6.5,43.5C 6.42702,41.9731 7.09368,40.9731 8.5,40.5 Z"/></g>
<g><path style="opacity:0.114" fill="#0c2835" d="M 6.5,43.5 C 6.82124,45.0481 7.82124,45.7148 9.5,45.5C 8.43236,46.4345 7.09903,46.7678 5.5,46.5C 5.26269,45.209 5.59603,44.209 6.5,43.5 Z"/></g>
</svg>
